<svg width="4098" height="1858" viewBox="0 0 4098 1858" fill="none" xmlns="http://www.w3.org/2000/svg">
<path d="M3101.55 904.35C3114.75 902.425 3480.48 937.461 3488.2 940.497C3471.53 942.508 3455.08 943.789 3438.32 944.57C3401.97 952.082 3343.02 953.32 3303.53 956.622C3229.96 962.775 3154.66 972.827 3081 973.892C3081.33 973.536 3081.66 973.187 3081.97 972.823C3090.44 963.099 3102.63 918.094 3101.55 904.35Z" fill="#67C723"/>
<path d="M2500.79 1153.71C2520.03 1150.86 2541.95 1150.14 2560.44 1156.97C2573.52 1161.81 2587.68 1171.48 2593.35 1184.76C2597.69 1194.93 2599.53 1210.49 2595.35 1220.88C2587.07 1221.01 2538.79 1223.3 2534.41 1220.12C2527.66 1215.24 2527.02 1206.42 2517.63 1203.68C2512.66 1205 2510.22 1206.15 2506.95 1210.28C2498.77 1220.6 2492.25 1234.97 2494.1 1248.39C2495.17 1256.1 2498.3 1261.66 2504.43 1266.36C2507.45 1267.07 2509.75 1268.18 2512.75 1267.06C2517.82 1265.17 2522.22 1258.65 2524.17 1253.74C2524.27 1253.47 2524.36 1253.2 2524.46 1252.94C2539.25 1252.72 2578.68 1249.21 2590.16 1254.81L2589.27 1259.73C2590.07 1262.41 2589.61 1264.9 2588.57 1267.44C2579.42 1289.78 2557.35 1307.83 2535.33 1316.38C2514.15 1324.6 2485.41 1326.09 2464.55 1316.46C2462.73 1315.64 2460.95 1314.73 2459.22 1313.73C2457.49 1312.73 2455.81 1311.64 2454.19 1310.47C2452.56 1309.3 2451 1308.06 2449.5 1306.73C2448 1305.41 2446.57 1304.01 2445.21 1302.54C2443.86 1301.07 2442.57 1299.54 2441.36 1297.95C2440.16 1296.35 2439.03 1294.7 2437.99 1292.99C2436.95 1291.28 2435.99 1289.52 2435.13 1287.71C2434.26 1285.91 2433.48 1284.07 2432.8 1282.18C2424.47 1258.74 2428.47 1228.17 2439.22 1206.08C2452.41 1178.97 2472.84 1163.48 2500.79 1153.71Z" fill="white"/>
<path d="M3036.21 1155.68C3053.99 1155.16 3077.21 1152.04 3094.43 1155.88C3103.21 1157.84 3094.45 1168.46 3098.73 1175.29C3107.96 1168.94 3119.37 1159.81 3130.24 1156.87C3144.64 1152.98 3165.29 1152.91 3178.3 1160.43C3189.06 1166.66 3195.57 1177.74 3198.46 1189.61C3200.61 1198.42 3200.8 1207.57 3200.06 1216.58C3199.03 1229.2 3184.7 1310.84 3180.27 1318.06L3114.92 1318.12C3115.07 1317.86 3115.21 1317.61 3115.35 1317.36C3120.64 1307.44 3126.18 1284.38 3123.08 1273.51C3123.27 1273.28 3123.48 1273.05 3123.67 1272.81C3131.15 1263.05 3133.8 1236.29 3132.05 1223.98C3130.88 1215.77 3128.14 1210.03 3121.46 1205.11C3118.54 1204.12 3115.85 1203.42 3112.78 1204.12C3068.77 1214.13 3087.65 1290.54 3068.28 1317.19C3068.06 1317.5 3067.81 1317.79 3067.58 1318.08L3003.77 1318.1C3017.21 1287.23 3025.13 1172.65 3036.21 1155.68Z" fill="white"/>
<path d="M3547.8 1155.69C3560.86 1154.96 3603.41 1152.06 3613.15 1157.51C3613.38 1158.6 3613.44 1158.78 3613.58 1160.03C3614.63 1169.3 3605.25 1215.91 3600.29 1222.44C3600.96 1223.81 3601.33 1224.93 3601.48 1226.47C3602.66 1238.87 3590.26 1309.24 3583.26 1318.03L3520.18 1318.22C3522.58 1313.9 3525.18 1307.58 3524.12 1302.65C3512.11 1299.65 3485.8 1327.28 3450.09 1315.77C3439.49 1312.35 3431.18 1305.33 3426.31 1295.28C3422.05 1286.48 3420.54 1276.44 3420.61 1266.72C3420.76 1246.63 3433.98 1174.12 3440.23 1155.68C3456.42 1154.8 3484.88 1151.36 3499.49 1156.98C3509.87 1171.43 3482.73 1230.07 3488.26 1253.41C3489.43 1258.35 3492.11 1262.52 3496.51 1265.13C3501.14 1267.88 3507.47 1269.31 3512.73 1267.76C3521.6 1265.15 3528.17 1256 3531.84 1248.01C3537.63 1235.42 3552.06 1167.23 3547.8 1155.69Z" fill="white"/>
<path d="M3152.73 709.968C3172.37 712.893 3193.16 712.792 3213.03 714.091L3335.21 722.164L3731.72 749.036C3712.23 753.998 3691.48 753.393 3671.49 754.048C3648.08 758.272 3622.83 758.15 3599.08 759.643L3465.59 768.227L3241.67 782.586C3204.17 784.975 3166.32 788.965 3128.79 789.731C3141.01 778.686 3151.5 727.104 3152.73 709.968Z" fill="#67C723"/>
<path d="M2639.75 1102.66C2658.23 1099.36 2685.59 1099.79 2704.13 1102.78C2704.29 1103.19 2704.46 1103.59 2704.61 1104C2707.8 1113.11 2696.32 1168.46 2691.84 1178.58C2705.96 1170.8 2715 1161.79 2731.51 1157.54C2745.58 1153.92 2765.26 1152.21 2777.98 1160.09C2788.22 1166.44 2793.65 1178.77 2796.06 1190.15C2800.09 1209.19 2787.37 1302.39 2777.2 1318L2712.57 1318.17C2712.97 1317.53 2713.35 1316.89 2713.71 1316.23C2718.35 1307.46 2723.86 1285.3 2721.02 1275.74C2726.85 1265.78 2731.44 1241.19 2730.93 1229.33C2730.58 1220.95 2728.12 1212.05 2721.6 1206.34C2718.53 1203.65 2714.44 1202.03 2710.32 1202.57C2668.95 1207.94 2681.97 1298.57 2667.97 1316.91C2667.66 1317.31 2667.33 1317.68 2667.01 1318.07L2601.74 1318.2C2609.34 1304.09 2642.13 1115.4 2639.75 1102.66Z" fill="white"/>
<path d="M2289.01 1153.71C2298.09 1152.06 2308 1151.85 2317.22 1151.63C2334.91 1151.22 2337.7 1156.41 2349.72 1167.94C2353.09 1168.71 2353.52 1169.35 2356.61 1167.51L2358.53 1157.97C2368.31 1150.25 2405.15 1155.07 2418.35 1155.46C2418.87 1156.5 2419.28 1157.55 2419.59 1158.68C2421.66 1166.36 2395.93 1310.09 2390.77 1318.04L2350.82 1318.09C2346.78 1318.16 2342.75 1318.11 2338.72 1317.94C2334 1317.77 2332.46 1318.64 2329.14 1315.08C2329.62 1311.75 2330.2 1309.1 2329 1305.89C2322.15 1307.11 2314.83 1313.24 2308.59 1316.54C2294.82 1323.83 2280.97 1325.07 2266.08 1320.33C2252.41 1315.98 2241.39 1307.73 2234.81 1294.8C2223.49 1272.55 2226.54 1238.67 2234.09 1215.49C2243.99 1185.1 2260.83 1168 2289.01 1153.71ZM2313.91 1208.69C2302.69 1216.51 2296.98 1225.17 2294.72 1238.77C2293.6 1245.44 2293.31 1252.6 2297.63 1258.23C2300.76 1262.33 2305.69 1263.41 2310.6 1263.99C2313.07 1264.27 2315.11 1264.67 2317.49 1263.68C2327.04 1261.77 2331.65 1258.72 2337.19 1250.61C2342.28 1243.16 2345.37 1233.78 2343.69 1224.72C2342.67 1219.28 2340.14 1214.51 2335.48 1211.38C2328.43 1206.64 2321.89 1207.21 2313.91 1208.69Z" fill="white"/>
<path d="M2873.71 1153.72C2876.33 1153.37 2878.96 1153.05 2881.58 1152.75C2905.1 1150.12 2919.33 1153.45 2938.02 1168.41L2941.06 1166.65L2943.33 1157.42C2952.41 1150.43 2990.97 1155.17 3003.46 1155.51C3003.82 1156.2 3004.51 1157.36 3004.72 1158.19C3006.46 1165.12 2981.6 1307.5 2976.35 1318.02L2936.7 1318.09C2929.28 1318.44 2922.75 1318.9 2915.7 1316.07C2914.44 1312.19 2914.43 1308.75 2914.39 1304.73C2910.13 1308.04 2905.67 1311.08 2901.03 1313.83C2887.18 1321.92 2867.86 1325.59 2852.26 1321.2C2838.48 1317.32 2827.3 1307.49 2820.68 1294.89C2808.93 1272.5 2811.42 1238.37 2819 1214.86C2828.59 1185.13 2846.34 1167.89 2873.71 1153.72ZM2899.09 1208.69C2887.8 1216.38 2881.71 1225.55 2879.23 1239.16C2878.19 1244.86 2878.05 1251.43 2881.37 1256.48C2884.86 1261.79 2891.74 1263.46 2897.65 1264.28C2899.38 1264.52 2900.61 1264.31 2902.29 1263.88C2912.41 1261.71 2917.37 1258.19 2923.03 1249.4C2927.91 1241.82 2930.61 1232.25 2928.55 1223.3C2927.29 1217.82 2924.37 1213.55 2919.51 1210.68C2912.67 1206.64 2906.61 1207.26 2899.09 1208.69Z" fill="white"/>
<path d="M1973.17 1155.68C1993.04 1154.98 2012.79 1154.99 2032.67 1155.33C2037.75 1164.86 2035.67 1236.35 2032.33 1249.01C2033.56 1248.02 2034.53 1247.04 2035.48 1245.75C2043.07 1235.36 2069.63 1166.63 2068.27 1155.91C2091.45 1154.71 2115.21 1154.22 2138.36 1155.92C2143.87 1164.56 2145.13 1235.02 2146.33 1250.57C2153.42 1239.34 2177.22 1166.85 2175.89 1155.78C2195.73 1155.11 2215.42 1155.32 2235.25 1155.75C2237.15 1165.87 2225.96 1186.06 2220.5 1194.5C2220.57 1195.12 2220.72 1196.21 2220.65 1196.9C2219.72 1207.49 2173.42 1312.78 2167.86 1318.07L2093.29 1318.24C2094.2 1316.67 2095.13 1314.92 2095.56 1313.15C2099.72 1295.78 2097.77 1241.86 2089.12 1227.6C2089.17 1227.93 2089.23 1228.26 2089.27 1228.6C2089.34 1229.16 2089.36 1229.72 2089.42 1230.28C2089.59 1231.75 2089.78 1233.09 2089.74 1234.59C2089.51 1243.6 2058.63 1312.72 2053.01 1318.09L1978.82 1318.23C1985.64 1307.44 1973.91 1178.01 1973.17 1155.68Z" fill="white"/>
<path d="M3275.66 1153.72C3287.74 1151.77 3302.41 1150.57 3314.5 1152.64L3315.75 1152.86C3327.43 1154.85 3330.34 1165.87 3340.54 1168.08C3343.54 1165.72 3343.25 1160.35 3345.91 1157.36C3350.9 1151.76 3396.21 1155.26 3405.36 1155.47C3405.49 1155.77 3405.64 1156.06 3405.75 1156.37C3409.01 1164.82 3383.56 1304.44 3379.31 1322.78C3377.19 1331.94 3374.33 1340.72 3370.24 1349.19C3359.61 1371.18 3340.74 1389.24 3317.44 1397.02C3286.91 1407.22 3252.23 1401.49 3224.03 1387.73C3221.04 1379.77 3211.07 1374.46 3207.82 1365.89C3203.75 1355.16 3206.67 1343.42 3201.78 1332.46C3214.69 1332.01 3252.81 1328.1 3263.25 1332.9C3269.1 1335.58 3272.54 1342.67 3278.63 1345.34C3284.22 1347.79 3291.11 1347.96 3296.76 1345.61C3304.37 1342.43 3310.19 1335.39 3313.25 1327.85C3316.27 1320.42 3317.69 1310.85 3314.65 1303.25C3312.98 1308.39 3306.5 1312.29 3301.97 1314.79C3287.97 1322.55 3266.71 1324.67 3251.53 1320.25C3239.19 1316.65 3229.31 1308.19 3223.16 1296.96C3211.08 1274.96 3212.92 1241.11 3220.07 1217.62C3229.94 1185.18 3246.39 1169.45 3275.66 1153.72ZM3300.99 1208.7C3291.9 1214.96 3284.78 1222.38 3282.64 1233.64C3280.91 1242.7 3280.65 1252.97 3286.16 1260.86C3287.6 1262.92 3289.75 1264.34 3291.85 1265.62C3296.6 1266.24 3300.64 1267.61 3305.07 1265.64C3315.64 1262.19 3322.15 1256.68 3327.1 1246.59C3330.92 1238.8 3332.72 1229.06 3329.68 1220.71C3327.67 1215.2 3323.77 1211.55 3318.45 1209.26C3312.51 1206.69 3307.16 1207.5 3300.99 1208.7Z" fill="white"/>
<path d="M3201.63 519.506C3222.51 514.228 3301.31 522.237 3328.1 523.629L3553.46 535.074L3841.73 549.231C3889.88 551.037 3938 553.461 3986.1 556.502C4005.52 557.708 4025.23 557.859 4044.54 560.266C4025.55 563.939 4004.59 563.155 3985.2 563.935C3966.47 568.469 3942.31 566.526 3922.78 567.638C3852.93 571.422 3783.05 574.68 3713.12 577.409L3340.07 595.391C3286.72 597.78 3232.88 603.026 3179.52 602.641C3180.32 601.784 3180.31 601.856 3181.08 600.691C3187.18 591.405 3203.42 530.58 3201.63 519.506Z" fill="#67C723"/>
<path d="M1715.46 1112.38C1738.45 1111.78 1768.03 1107.92 1790.21 1113.66C1799.85 1123.31 1813.89 1218 1818.14 1237.36C1828.36 1212.84 1881.37 1130.27 1881.44 1112.18C1902.62 1111.89 1941.23 1107.53 1960.79 1113.78C1961.19 1114.89 1961.5 1115.99 1961.71 1117.15C1963.11 1125.04 1933.21 1295.32 1928.7 1311.25C1928 1313.72 1926.59 1315.88 1925.06 1317.91C1905.86 1318.86 1883.1 1320.03 1864.14 1317.13L1865.19 1305.48C1868.77 1286.83 1883.29 1232.45 1874.94 1217.39C1875.95 1241.88 1842.82 1294.57 1830.76 1318.11L1774.26 1318.17C1772.21 1286.23 1766.34 1254.03 1763.03 1222.1C1751.89 1252.59 1747.26 1285.93 1742.99 1318.03L1678.38 1318.3C1685.59 1274.14 1693.13 1230.04 1700.99 1185.99C1705.15 1162.15 1707.41 1135.12 1715.46 1112.38Z" fill="white"/>
<path d="M710.13 590.02C778.606 589.657 849.591 594.657 914.524 618.658C921.247 621.141 931.229 624.429 934.367 631.269C936.851 653.108 914.004 773.379 904.851 795.944C902.657 801.348 900.396 806.018 893.989 806.792C885.593 807.806 862.176 796.207 853.324 793.149C844.477 790.038 835.486 787.425 826.349 785.309C817.216 783.194 807.992 781.589 798.678 780.495C714.732 769.81 632.351 789.655 555.027 821.122C521.591 833.038 489.082 850.081 458.579 868.152C441.819 878.082 424.866 889.959 407.26 898.079C399.553 901.637 394.647 902.31 386.64 899.363C383.393 896.399 382.03 893.596 381.466 889.3C379.806 876.647 410.333 721.193 415.918 699.789C417.63 693.238 419.633 686.614 423.976 681.304C434.343 668.625 454.426 661.07 469.006 654.155C547.417 616.968 624.016 598.68 710.13 590.02Z" fill="#67C723"/>
<path d="M443.288 1661.28C424.354 1655.4 409.217 1649.46 399.542 1630.67C388.991 1610.17 377.923 1560.82 385.087 1539.09C387.989 1530.28 392.655 1523.76 399.353 1517.42C435.574 1483.15 545.935 1428.37 592.569 1405.63C821.615 1293.93 1085.04 1246.77 1338.3 1241.35C1395.41 1240.13 1453.68 1239.76 1510.78 1241.49C1532.28 1242.14 1553.7 1245.08 1575.17 1245.4C1505.52 1260.47 1426.45 1263.36 1354.7 1274.73C1330.45 1278.47 1306.28 1282.65 1282.18 1287.29C1258.09 1291.93 1234.09 1297.02 1210.19 1302.57C1186.28 1308.11 1162.49 1314.09 1138.81 1320.53C1115.13 1326.97 1091.58 1333.84 1068.16 1341.16C1044.74 1348.48 1021.46 1356.24 998.331 1364.44C975.198 1372.63 952.228 1381.26 929.421 1390.32C906.611 1399.37 883.978 1408.86 861.523 1418.76C839.07 1428.67 816.809 1439 794.741 1449.74C738.918 1476.9 684.886 1507.25 632.645 1540.81C602.451 1560.42 572.535 1580.44 542.899 1600.88C512.93 1621.87 485.514 1650.7 449.918 1661.28H443.288Z" fill="#269F44"/>
<path d="M2295.6 317.263C2318.88 314.946 2343.24 315.73 2366.6 316.597C2367.21 317.964 2367.68 319.292 2367.99 320.767C2369.83 329.369 2333.2 508.501 2327.72 516.401C2307.65 515.883 2287.23 514.746 2267.3 517.679C2123.63 538.834 2092.31 707.089 2070.73 824.806C2062.9 867.587 2054.21 910.297 2046.69 953.122C2043.78 969.729 2040.37 1012.63 2031.69 1024.29C1964.24 1024.52 1896.38 1025.73 1828.97 1023.63C1834.82 1001.25 1838.1 977.551 1842.42 954.791C1877.37 770.749 1915.52 588.703 1935.14 402.225C1937.13 383.3 1945.29 348.2 1938.13 330.938C1997.94 327.387 2059.41 330.258 2119.35 330.413C2120.12 332.035 2120.82 333.766 2121.08 335.557C2122.67 346.732 2112 452.22 2108.99 465.492C2107.84 470.551 2105.03 474.843 2102.14 479.078C2116.14 467.766 2126.46 445.722 2136.39 430.597C2175.69 370.762 2227.15 335.226 2295.6 317.263Z" fill="#67C723"/>
<path d="M2845.85 317.266C2896.83 314.6 2949.63 312.301 2994.64 340.759C3031.16 363.85 3053.63 401.919 3062.74 443.653C3071.46 483.625 3069.4 521.298 3065.46 561.561C3061.16 605.4 2988.13 1010.01 2979.05 1024.25C2910.47 1025.72 2841.73 1023.53 2773.1 1024.56C2783.32 1002.95 2795.99 914.362 2801.72 883.709C2817.82 797.563 2836.99 710.791 2849.49 624.105C2852.48 603.328 2854.37 581.601 2854.29 560.615C2854.2 537.934 2850.9 513.246 2833.81 496.663C2821.57 484.794 2804.26 479.642 2787.49 480.063C2737.4 481.322 2696.44 525.219 2672.63 565.202C2665.38 577.362 2658.18 595.762 2648.49 605.688C2648.23 605.951 2647.96 606.202 2647.69 606.461C2648.34 612.427 2622.81 686.502 2619.37 702.541C2610.7 743.031 2565.61 1011.7 2557.01 1024.47L2350.05 1024.1C2351.06 1022.54 2351.92 1020.92 2352.6 1019.19C2360.26 999.612 2362.39 973.733 2366.27 952.898L2391.45 818.336L2439.67 560.489C2452.91 489.533 2467.12 417.468 2475.06 345.706C2475.76 339.417 2476.54 333.729 2473.93 327.739C2534.66 324.99 2596.66 327.62 2657.52 327.541C2658.62 329.844 2659.4 332.236 2659.78 334.766C2661.42 345.635 2651.14 423.524 2647.21 437.605C2646.17 441.365 2643.87 444.653 2641.57 447.744C2641.75 447.586 2641.94 447.427 2642.12 447.265C2657.04 434.054 2667.63 417.414 2681.42 403.153C2727.73 355.255 2781.84 331.211 2845.85 317.266Z" fill="#67C723"/>
<path d="M785.444 197.557C912.611 191.182 1045.04 204.993 1170.04 227.847C1216.22 236.291 1261.78 247.099 1307.69 256.813C1078.34 258.061 848.888 268.534 625.1 323.059C567.411 337.116 510.823 355.004 454.426 373.479C427.652 425.921 404.841 481.057 382.973 535.711C275.779 803.601 218.435 1084.55 182.832 1370C187.268 1366.57 191.728 1363.16 196.214 1359.79C259.537 1312.26 330.804 1273.38 403.168 1241.62C714.42 1104.99 1059.46 1109.11 1389.63 1156.68C1463.16 1167.11 1536.27 1179.99 1608.94 1195.32C1578.98 1196.08 1548.64 1193.37 1518.64 1192.82C1462.91 1192.31 1407.19 1192.19 1351.46 1192.47C1128.06 1194.18 901.312 1219.28 687.427 1285.74C660.372 1294.13 633.532 1303.16 606.905 1312.82C580.276 1322.49 553.89 1332.78 527.747 1343.69C501.602 1354.6 475.729 1366.12 450.129 1378.26C424.529 1390.39 399.229 1403.13 374.227 1416.46C329.013 1440.92 283.881 1466.65 241.003 1495.04C212.532 1513.89 184.398 1537.5 154.229 1553.19C143.425 1558.81 131.826 1562.53 119.617 1563.26C99.1755 1564.48 81.5215 1557.04 66.5421 1543.42C51.6959 1529.92 43.5485 1512.9 42.4742 1492.89C39.7672 1442.47 49.3165 1363.96 54.2469 1311.8C57.5385 1273.9 61.5007 1236.07 66.1335 1198.31C70.7664 1160.55 76.0669 1122.88 82.0351 1085.31C88.0034 1047.74 94.6358 1010.29 101.932 972.957C109.228 935.621 117.184 898.428 125.799 861.378C134.414 824.328 143.683 787.442 153.605 750.72C163.528 713.999 174.099 677.465 185.317 641.12C196.535 604.775 208.393 568.642 220.892 532.722C233.392 496.799 246.524 461.11 260.288 425.654C272.113 395.8 295.925 325.48 315.452 304.581C331.182 287.747 366.613 280.177 387.726 273.37C403.788 268.04 419.932 262.977 436.159 258.18C452.388 253.385 468.691 248.858 485.069 244.598C501.446 240.341 517.888 236.354 534.395 232.639C550.904 228.924 567.468 225.482 584.087 222.313C600.709 219.145 617.378 216.252 634.095 213.635C650.813 211.016 667.567 208.674 684.358 206.609C701.152 204.546 717.975 202.759 734.826 201.248C751.68 199.739 768.552 198.509 785.444 197.557Z" fill="#67C723"/>
<path d="M1487.18 316.925C1586.61 309.009 1682.19 324.225 1778.33 347.657C1775.7 371.892 1769.05 396.8 1764.27 420.75C1755.2 466.941 1745.85 513.076 1736.22 559.155C1703.3 714.325 1675.97 867.786 1677.44 1027.1L1488.42 1027.07C1488.66 978.832 1494.46 931.086 1496.74 882.936C1477.95 918.252 1454.97 949.949 1425.04 976.648C1390.93 1007.96 1348.56 1029.56 1302.62 1036.2C1245.58 1044.44 1185.7 1036.33 1138.86 1000.76C1088.8 962.735 1062.85 904.645 1054.55 843.486C1038.28 723.578 1078.97 588.041 1151.76 492.653C1237.18 380.714 1352.35 334.903 1487.18 316.925ZM1474.78 472.674C1420.69 477.973 1374.5 513.635 1341.09 554.502C1291.23 615.496 1259.42 705.24 1267.56 784.302C1270.34 811.199 1279.03 839.312 1300.86 856.859C1312.25 866.019 1326.02 870.955 1340.26 873.531C1363.75 876.305 1390.94 864.526 1409.12 850.239C1510.38 770.655 1518.92 594.014 1547.02 477.182C1523.98 472.602 1498.19 469.245 1474.78 472.674Z" fill="#67C723"/>
</svg>
