<svg width="1000" height="1000" viewBox="0 0 1000 1000" fill="none" xmlns="http://www.w3.org/2000/svg">
<path d="M442.799 331.516C477.02 331.335 512.496 333.829 544.947 345.797C548.306 347.035 553.295 348.675 554.863 352.086C556.104 362.976 544.686 422.951 540.112 434.204C539.016 436.898 537.886 439.227 534.684 439.613C530.488 440.119 518.785 434.335 514.361 432.81C509.94 431.258 505.446 429.955 500.88 428.9C496.316 427.845 491.706 427.045 487.052 426.5C445.099 421.171 403.928 431.068 365.284 446.759C348.575 452.701 332.328 461.2 317.083 470.211C308.708 475.163 300.236 481.085 291.437 485.135C287.585 486.909 285.133 487.245 281.132 485.775C279.509 484.297 278.828 482.899 278.546 480.757C277.716 474.447 292.972 396.928 295.763 386.254C296.619 382.987 297.62 379.684 299.791 377.036C304.971 370.714 315.008 366.946 322.295 363.498C361.481 344.954 399.762 335.835 442.799 331.516Z" fill="white"/>
<path d="M309.165 865.745C299.702 862.813 292.137 859.851 287.302 850.477C282.029 840.256 276.498 815.65 280.078 804.81C281.529 800.419 283.861 797.165 287.208 794.006C305.31 776.915 360.464 749.598 383.77 738.257C498.237 682.558 629.889 659.04 756.456 656.337C784.995 655.728 814.116 655.545 842.653 656.41C853.396 656.735 864.102 658.199 874.835 658.359C840.023 665.872 800.508 667.313 764.651 672.986C752.531 674.847 740.451 676.935 728.409 679.249C716.369 681.562 704.376 684.101 692.43 686.865C680.484 689.628 668.594 692.614 656.759 695.823C644.925 699.032 633.156 702.462 621.45 706.112C609.745 709.763 598.112 713.631 586.553 717.718C574.992 721.804 563.512 726.106 552.114 730.623C540.715 735.14 529.404 739.868 518.182 744.809C506.96 749.75 495.835 754.899 484.807 760.257C456.909 773.799 429.906 788.936 403.798 805.669C388.708 815.446 373.757 825.43 358.946 835.622C343.969 846.092 330.268 860.47 312.478 865.745H309.165Z" fill="white"/>
<path d="M480.327 135.831C543.88 132.653 610.061 139.54 672.534 150.936C695.612 155.147 718.381 160.536 741.323 165.38C626.703 166.003 512.034 171.226 400.194 198.415C371.363 205.425 343.083 214.345 314.898 223.558C301.517 249.709 290.117 277.203 279.188 304.458C225.617 438.045 196.959 578.147 179.166 720.491C181.383 718.777 183.612 717.08 185.854 715.399C217.5 691.697 253.117 672.31 289.281 656.47C444.832 588.339 617.269 590.393 782.275 614.115C819.024 619.313 855.558 625.735 891.876 633.382C876.906 633.762 861.741 632.409 846.75 632.135C818.899 631.879 791.049 631.821 763.199 631.963C651.551 632.811 538.233 645.33 431.342 678.471C417.821 682.656 404.408 687.158 391.101 691.977C377.793 696.796 364.606 701.926 351.541 707.367C338.474 712.809 325.544 718.556 312.75 724.607C299.957 730.659 287.312 737.009 274.818 743.658C252.221 755.855 229.667 768.686 208.238 782.843C194.009 792.243 179.949 804.015 164.872 811.841C159.472 814.644 153.676 816.495 147.574 816.859C137.358 817.471 128.535 813.757 121.049 806.967C113.63 800.235 109.558 791.749 109.021 781.772C107.668 756.63 112.441 717.475 114.905 691.464C116.55 672.565 118.53 653.701 120.845 634.871C123.16 616.042 125.809 597.26 128.792 578.525C131.775 559.79 135.089 541.114 138.736 522.497C142.382 503.879 146.358 485.332 150.663 466.856C154.969 448.381 159.601 429.987 164.56 411.675C169.519 393.363 174.802 375.145 180.408 357.021C186.014 338.897 191.941 320.879 198.187 302.967C204.434 285.053 210.997 267.256 217.876 249.576C223.785 234.688 235.685 199.623 245.444 189.201C253.306 180.806 271.013 177.031 281.564 173.637C289.591 170.979 297.659 168.454 305.769 166.062C313.879 163.671 322.027 161.414 330.212 159.289C338.397 157.166 346.614 155.178 354.863 153.326C363.114 151.473 371.392 149.757 379.697 148.177C388.004 146.597 396.335 145.154 404.689 143.849C413.044 142.543 421.417 141.375 429.809 140.345C438.202 139.317 446.609 138.426 455.03 137.672C463.453 136.92 471.885 136.306 480.327 135.831Z" fill="white"/>
</svg>
