<svg width="1000" height="1000" viewBox="0 0 1000 1000" fill="none" xmlns="http://www.w3.org/2000/svg">
<g clip-path="url(#clip0_1022_7901)">
<mask id="mask0_1022_7901" style="mask-type:luminance" maskUnits="userSpaceOnUse" x="0" y="0" width="1000" height="1000">
<path d="M650 0H350C156.7 0 0 156.7 0 350V650C0 843.3 156.7 1000 350 1000H650C843.3 1000 1000 843.3 1000 650V350C1000 156.7 843.3 0 650 0Z" fill="white"/>
</mask>
<g mask="url(#mask0_1022_7901)">
<path d="M1000 0H0V1000H1000V0Z" fill="white"/>
<path d="M453.557 363.096C481.379 362.949 510.221 364.976 536.604 374.707C539.335 375.713 543.391 377.046 544.666 379.819C545.675 388.673 536.392 437.433 532.673 446.582C531.782 448.773 530.863 450.666 528.26 450.98C524.849 451.391 515.334 446.688 511.738 445.448C508.143 444.187 504.49 443.128 500.778 442.27C497.066 441.413 493.319 440.762 489.535 440.319C455.426 435.986 421.954 444.032 390.537 456.789C376.952 461.62 363.743 468.53 351.349 475.856C344.54 479.882 337.652 484.697 330.498 487.989C327.367 489.432 325.373 489.705 322.12 488.51C320.801 487.308 320.247 486.172 320.018 484.43C319.343 479.3 331.746 416.276 334.016 407.599C334.711 404.943 335.525 402.257 337.29 400.104C341.502 394.964 349.662 391.901 355.586 389.098C387.445 374.021 418.568 366.607 453.557 363.096Z" fill="#67C723"/>
<path d="M344.911 797.428C337.218 795.045 331.068 792.636 327.137 785.015C322.85 776.705 318.353 756.7 321.264 747.887C322.443 744.318 324.339 741.672 327.06 739.104C341.777 725.209 386.618 703 405.565 693.78C498.629 648.495 605.662 629.376 708.563 627.178C731.765 626.683 755.441 626.534 778.641 627.237C787.376 627.501 796.08 628.692 804.805 628.821C776.503 634.93 744.377 636.101 715.225 640.714C705.372 642.227 695.55 643.924 685.76 645.806C675.971 647.686 666.221 649.75 656.509 651.997C646.797 654.244 637.13 656.671 627.508 659.28C617.887 661.889 608.319 664.678 598.802 667.646C589.285 670.613 579.828 673.759 570.43 677.081C561.031 680.403 551.698 683.901 542.431 687.573C533.163 691.245 523.967 695.09 514.843 699.107C505.721 703.124 496.676 707.31 487.71 711.665C465.028 722.675 443.075 734.982 421.849 748.586C409.58 756.535 397.425 764.652 385.384 772.938C373.207 781.45 362.068 793.14 347.605 797.428H344.911Z" fill="#269F44"/>
<path d="M484.068 204.003C535.736 201.418 589.542 207.018 640.333 216.283C659.096 219.706 677.607 224.088 696.259 228.026C603.072 228.532 509.845 232.778 418.918 254.884C395.479 260.583 372.487 267.835 349.572 275.325C338.694 296.586 329.425 318.939 320.54 341.097C276.986 449.705 253.687 563.609 239.221 679.336C241.023 677.942 242.836 676.562 244.659 675.196C270.387 655.926 299.343 640.164 328.746 627.286C455.21 571.895 595.402 573.565 729.553 592.851C759.431 597.077 789.133 602.298 818.66 608.515C806.489 608.824 794.16 607.725 781.972 607.501C759.329 607.293 736.687 607.247 714.044 607.361C623.274 608.051 531.145 618.23 444.242 645.173C433.25 648.576 422.344 652.236 411.526 656.154C400.706 660.072 389.985 664.242 379.363 668.666C368.74 673.09 358.228 677.762 347.826 682.682C337.425 687.602 327.145 692.765 316.987 698.171C298.616 708.087 280.278 718.519 262.857 730.029C251.289 737.67 239.857 747.242 227.6 753.604C223.21 755.883 218.497 757.388 213.536 757.684C205.231 758.181 198.058 755.162 191.972 749.641C185.94 744.168 182.629 737.269 182.193 729.158C181.093 708.717 184.973 676.884 186.976 655.737C188.313 640.371 189.923 625.034 191.806 609.726C193.688 594.418 195.842 579.148 198.267 563.916C200.692 548.684 203.386 533.501 206.351 518.365C209.315 503.228 212.548 488.15 216.048 473.129C219.548 458.108 223.314 443.154 227.346 428.266C231.378 413.378 235.673 398.567 240.231 383.832C244.789 369.097 249.607 354.448 254.685 339.885C259.764 325.321 265.1 310.852 270.692 296.478C275.497 284.374 285.172 255.865 293.106 247.392C299.497 240.567 313.893 237.498 322.471 234.739C328.997 232.578 335.557 230.525 342.15 228.58C348.744 226.637 355.368 224.801 362.022 223.074C368.677 221.348 375.357 219.732 382.064 218.226C388.772 216.719 395.502 215.324 402.254 214.039C409.008 212.755 415.781 211.582 422.573 210.521C429.366 209.459 436.173 208.51 442.995 207.673C449.819 206.836 456.654 206.112 463.501 205.499C470.349 204.888 477.204 204.389 484.068 204.003Z" fill="#67C723"/>
</g>
</g>
<defs>
<clipPath id="clip0_1022_7901">
<rect width="1000" height="1000" fill="white"/>
</clipPath>
</defs>
</svg>
